<mxfile host="app.diagrams.net" agent="Mozilla/5.0 (Windows NT 10.0; Win64; x64) AppleWebKit/537.36 (KHTML, like Gecko) Chrome/138.0.0.0 Safari/537.36" version="27.1.6">
  <diagram name="Página-1" id="oX345Qk9nzbC8y02tmtn">
    <mxGraphModel dx="1188" dy="648" grid="1" gridSize="10" guides="1" tooltips="1" connect="1" arrows="1" fold="1" page="1" pageScale="1" pageWidth="1169" pageHeight="827" math="0" shadow="0">
      <root>
        <mxCell id="0" />
        <mxCell id="1" parent="0" />
        <mxCell id="r-5Lw3RcsIutJ1iu17y8-7" style="edgeStyle=orthogonalEdgeStyle;rounded=0;orthogonalLoop=1;jettySize=auto;html=1;entryX=0;entryY=0.5;entryDx=0;entryDy=0;fillColor=#e51400;strokeColor=light-dark(#ff0000, #ffacac);strokeWidth=3;" edge="1" parent="1" source="r-5Lw3RcsIutJ1iu17y8-1" target="r-5Lw3RcsIutJ1iu17y8-4">
          <mxGeometry relative="1" as="geometry" />
        </mxCell>
        <mxCell id="r-5Lw3RcsIutJ1iu17y8-8" style="edgeStyle=orthogonalEdgeStyle;rounded=0;orthogonalLoop=1;jettySize=auto;html=1;entryX=0;entryY=0.5;entryDx=0;entryDy=0;fillColor=#e51400;strokeColor=light-dark(#ff0000, #ffacac);strokeWidth=3;" edge="1" parent="1" source="r-5Lw3RcsIutJ1iu17y8-1" target="r-5Lw3RcsIutJ1iu17y8-6">
          <mxGeometry relative="1" as="geometry" />
        </mxCell>
        <mxCell id="r-5Lw3RcsIutJ1iu17y8-16" style="edgeStyle=orthogonalEdgeStyle;rounded=0;orthogonalLoop=1;jettySize=auto;html=1;exitX=1;exitY=0;exitDx=0;exitDy=0;entryX=0;entryY=0;entryDx=0;entryDy=0;strokeWidth=3;" edge="1" parent="1" source="r-5Lw3RcsIutJ1iu17y8-1" target="r-5Lw3RcsIutJ1iu17y8-2">
          <mxGeometry relative="1" as="geometry" />
        </mxCell>
        <mxCell id="r-5Lw3RcsIutJ1iu17y8-17" style="edgeStyle=orthogonalEdgeStyle;rounded=0;orthogonalLoop=1;jettySize=auto;html=1;exitX=1;exitY=1;exitDx=0;exitDy=0;entryX=0;entryY=1;entryDx=0;entryDy=0;strokeWidth=3;" edge="1" parent="1" source="r-5Lw3RcsIutJ1iu17y8-1" target="r-5Lw3RcsIutJ1iu17y8-3">
          <mxGeometry relative="1" as="geometry" />
        </mxCell>
        <mxCell id="r-5Lw3RcsIutJ1iu17y8-25" style="edgeStyle=orthogonalEdgeStyle;rounded=0;orthogonalLoop=1;jettySize=auto;html=1;exitX=0.75;exitY=0;exitDx=0;exitDy=0;entryX=0;entryY=0.75;entryDx=0;entryDy=0;strokeWidth=3;" edge="1" parent="1" source="r-5Lw3RcsIutJ1iu17y8-1" target="r-5Lw3RcsIutJ1iu17y8-23">
          <mxGeometry relative="1" as="geometry" />
        </mxCell>
        <mxCell id="r-5Lw3RcsIutJ1iu17y8-1" value="Baterial 7.4V" style="whiteSpace=wrap;html=1;aspect=fixed;" vertex="1" parent="1">
          <mxGeometry x="50" y="314" width="80" height="80" as="geometry" />
        </mxCell>
        <mxCell id="r-5Lw3RcsIutJ1iu17y8-14" style="edgeStyle=orthogonalEdgeStyle;rounded=0;orthogonalLoop=1;jettySize=auto;html=1;exitX=1;exitY=0.75;exitDx=0;exitDy=0;entryX=0;entryY=0.75;entryDx=0;entryDy=0;strokeWidth=3;" edge="1" parent="1" source="r-5Lw3RcsIutJ1iu17y8-2" target="r-5Lw3RcsIutJ1iu17y8-11">
          <mxGeometry relative="1" as="geometry" />
        </mxCell>
        <mxCell id="r-5Lw3RcsIutJ1iu17y8-15" style="edgeStyle=orthogonalEdgeStyle;rounded=0;orthogonalLoop=1;jettySize=auto;html=1;exitX=1;exitY=0.25;exitDx=0;exitDy=0;entryX=0;entryY=0.25;entryDx=0;entryDy=0;strokeWidth=3;strokeColor=light-dark(#ff0000, #ededed);" edge="1" parent="1" source="r-5Lw3RcsIutJ1iu17y8-2" target="r-5Lw3RcsIutJ1iu17y8-11">
          <mxGeometry relative="1" as="geometry" />
        </mxCell>
        <mxCell id="r-5Lw3RcsIutJ1iu17y8-2" value="Regulador de tensão&lt;br&gt;5.1V 2A" style="rounded=1;whiteSpace=wrap;html=1;" vertex="1" parent="1">
          <mxGeometry x="320" y="280" width="120" height="60" as="geometry" />
        </mxCell>
        <mxCell id="r-5Lw3RcsIutJ1iu17y8-21" style="edgeStyle=orthogonalEdgeStyle;rounded=0;orthogonalLoop=1;jettySize=auto;html=1;exitX=1;exitY=0.25;exitDx=0;exitDy=0;entryX=0;entryY=0;entryDx=0;entryDy=0;strokeColor=light-dark(#FF0000,#FF0000);strokeWidth=3;" edge="1" parent="1" source="r-5Lw3RcsIutJ1iu17y8-3" target="r-5Lw3RcsIutJ1iu17y8-18">
          <mxGeometry relative="1" as="geometry" />
        </mxCell>
        <mxCell id="r-5Lw3RcsIutJ1iu17y8-3" value="Regulador de tensão&lt;br&gt;6V 4A" style="rounded=1;whiteSpace=wrap;html=1;" vertex="1" parent="1">
          <mxGeometry x="320" y="370" width="120" height="60" as="geometry" />
        </mxCell>
        <mxCell id="r-5Lw3RcsIutJ1iu17y8-10" style="edgeStyle=orthogonalEdgeStyle;rounded=0;orthogonalLoop=1;jettySize=auto;html=1;strokeColor=light-dark(#ff0000, #ededed);strokeWidth=3;" edge="1" parent="1" source="r-5Lw3RcsIutJ1iu17y8-4" target="r-5Lw3RcsIutJ1iu17y8-2">
          <mxGeometry relative="1" as="geometry" />
        </mxCell>
        <mxCell id="r-5Lw3RcsIutJ1iu17y8-24" style="edgeStyle=orthogonalEdgeStyle;rounded=0;orthogonalLoop=1;jettySize=auto;html=1;exitX=1;exitY=0.5;exitDx=0;exitDy=0;entryX=0;entryY=1;entryDx=0;entryDy=0;strokeColor=light-dark(#ff0000, #ededed);strokeWidth=3;" edge="1" parent="1" source="r-5Lw3RcsIutJ1iu17y8-4" target="r-5Lw3RcsIutJ1iu17y8-23">
          <mxGeometry relative="1" as="geometry">
            <Array as="points">
              <mxPoint x="280" y="310" />
              <mxPoint x="280" y="230" />
            </Array>
          </mxGeometry>
        </mxCell>
        <mxCell id="r-5Lw3RcsIutJ1iu17y8-4" value="Botão 1" style="ellipse;whiteSpace=wrap;html=1;aspect=fixed;" vertex="1" parent="1">
          <mxGeometry x="200" y="280" width="60" height="60" as="geometry" />
        </mxCell>
        <mxCell id="r-5Lw3RcsIutJ1iu17y8-6" value="Botão 2" style="ellipse;whiteSpace=wrap;html=1;aspect=fixed;" vertex="1" parent="1">
          <mxGeometry x="200" y="380" width="60" height="60" as="geometry" />
        </mxCell>
        <mxCell id="r-5Lw3RcsIutJ1iu17y8-9" style="edgeStyle=orthogonalEdgeStyle;rounded=0;orthogonalLoop=1;jettySize=auto;html=1;exitX=1;exitY=0.5;exitDx=0;exitDy=0;entryX=0.003;entryY=0.672;entryDx=0;entryDy=0;entryPerimeter=0;strokeWidth=3;strokeColor=light-dark(#ff0000, #ededed);" edge="1" parent="1" source="r-5Lw3RcsIutJ1iu17y8-6" target="r-5Lw3RcsIutJ1iu17y8-3">
          <mxGeometry relative="1" as="geometry" />
        </mxCell>
        <mxCell id="r-5Lw3RcsIutJ1iu17y8-31" style="edgeStyle=orthogonalEdgeStyle;rounded=0;orthogonalLoop=1;jettySize=auto;html=1;exitX=1;exitY=0.25;exitDx=0;exitDy=0;entryX=0;entryY=0.25;entryDx=0;entryDy=0;strokeWidth=3;strokeColor=light-dark(#ff0000, #ededed);" edge="1" parent="1" source="r-5Lw3RcsIutJ1iu17y8-11" target="r-5Lw3RcsIutJ1iu17y8-29">
          <mxGeometry relative="1" as="geometry">
            <Array as="points">
              <mxPoint x="700" y="297" />
              <mxPoint x="700" y="330" />
            </Array>
          </mxGeometry>
        </mxCell>
        <mxCell id="r-5Lw3RcsIutJ1iu17y8-32" style="edgeStyle=orthogonalEdgeStyle;rounded=0;orthogonalLoop=1;jettySize=auto;html=1;exitX=1;exitY=0.75;exitDx=0;exitDy=0;entryX=0;entryY=0.75;entryDx=0;entryDy=0;strokeWidth=3;" edge="1" parent="1" source="r-5Lw3RcsIutJ1iu17y8-11" target="r-5Lw3RcsIutJ1iu17y8-29">
          <mxGeometry relative="1" as="geometry">
            <Array as="points">
              <mxPoint x="690" y="324" />
              <mxPoint x="690" y="350" />
            </Array>
          </mxGeometry>
        </mxCell>
        <mxCell id="r-5Lw3RcsIutJ1iu17y8-40" style="edgeStyle=orthogonalEdgeStyle;rounded=0;orthogonalLoop=1;jettySize=auto;html=1;exitX=1;exitY=0.25;exitDx=0;exitDy=0;entryX=0;entryY=0.25;entryDx=0;entryDy=0;strokeWidth=3;strokeColor=light-dark(#ff0000, #ededed);" edge="1" parent="1" source="r-5Lw3RcsIutJ1iu17y8-11" target="r-5Lw3RcsIutJ1iu17y8-39">
          <mxGeometry relative="1" as="geometry" />
        </mxCell>
        <mxCell id="r-5Lw3RcsIutJ1iu17y8-41" style="edgeStyle=orthogonalEdgeStyle;rounded=0;orthogonalLoop=1;jettySize=auto;html=1;exitX=1;exitY=0.75;exitDx=0;exitDy=0;entryX=0;entryY=0.75;entryDx=0;entryDy=0;strokeWidth=3;" edge="1" parent="1" source="r-5Lw3RcsIutJ1iu17y8-11" target="r-5Lw3RcsIutJ1iu17y8-39">
          <mxGeometry relative="1" as="geometry" />
        </mxCell>
        <mxCell id="r-5Lw3RcsIutJ1iu17y8-11" value="Capacitor Eletrolítico 470uF + Cerâmico 100nF" style="shape=trapezoid;perimeter=trapezoidPerimeter;whiteSpace=wrap;html=1;fixedSize=1;" vertex="1" parent="1">
          <mxGeometry x="470" y="280" width="190" height="60" as="geometry" />
        </mxCell>
        <mxCell id="r-5Lw3RcsIutJ1iu17y8-37" style="edgeStyle=orthogonalEdgeStyle;rounded=0;orthogonalLoop=1;jettySize=auto;html=1;exitX=1;exitY=0.25;exitDx=0;exitDy=0;entryX=0;entryY=0.25;entryDx=0;entryDy=0;strokeWidth=3;strokeColor=light-dark(#ff0000, #ededed);" edge="1" parent="1" source="r-5Lw3RcsIutJ1iu17y8-18" target="r-5Lw3RcsIutJ1iu17y8-36">
          <mxGeometry relative="1" as="geometry">
            <Array as="points">
              <mxPoint x="680" y="397" />
              <mxPoint x="680" y="545" />
            </Array>
          </mxGeometry>
        </mxCell>
        <mxCell id="r-5Lw3RcsIutJ1iu17y8-38" style="edgeStyle=orthogonalEdgeStyle;rounded=0;orthogonalLoop=1;jettySize=auto;html=1;exitX=1;exitY=1;exitDx=0;exitDy=0;entryX=0;entryY=0.75;entryDx=0;entryDy=0;strokeWidth=3;" edge="1" parent="1" source="r-5Lw3RcsIutJ1iu17y8-18" target="r-5Lw3RcsIutJ1iu17y8-36">
          <mxGeometry relative="1" as="geometry" />
        </mxCell>
        <mxCell id="r-5Lw3RcsIutJ1iu17y8-18" value="Capacitor Eletrolítico 470uF + Cerâmico 100nF" style="shape=trapezoid;perimeter=trapezoidPerimeter;whiteSpace=wrap;html=1;fixedSize=1;" vertex="1" parent="1">
          <mxGeometry x="470" y="380" width="190" height="60" as="geometry" />
        </mxCell>
        <mxCell id="r-5Lw3RcsIutJ1iu17y8-22" style="edgeStyle=orthogonalEdgeStyle;rounded=0;orthogonalLoop=1;jettySize=auto;html=1;exitX=1;exitY=0.75;exitDx=0;exitDy=0;entryX=0.041;entryY=0.581;entryDx=0;entryDy=0;entryPerimeter=0;strokeWidth=3;" edge="1" parent="1" source="r-5Lw3RcsIutJ1iu17y8-3" target="r-5Lw3RcsIutJ1iu17y8-18">
          <mxGeometry relative="1" as="geometry" />
        </mxCell>
        <mxCell id="r-5Lw3RcsIutJ1iu17y8-23" value="Arduino" style="whiteSpace=wrap;html=1;aspect=fixed;" vertex="1" parent="1">
          <mxGeometry x="340" y="150" width="80" height="80" as="geometry" />
        </mxCell>
        <mxCell id="r-5Lw3RcsIutJ1iu17y8-26" value="Placa de sensores&lt;br&gt;5 infravermelhos&lt;div&gt;2 de cor ( cada com um capacitor eletrolitico de 100uF + cerâmico de 100nF)&lt;/div&gt;" style="rounded=0;whiteSpace=wrap;html=1;" vertex="1" parent="1">
          <mxGeometry x="750" y="200" width="160" height="110" as="geometry" />
        </mxCell>
        <mxCell id="r-5Lw3RcsIutJ1iu17y8-27" style="edgeStyle=orthogonalEdgeStyle;rounded=0;orthogonalLoop=1;jettySize=auto;html=1;exitX=1;exitY=0.75;exitDx=0;exitDy=0;entryX=0.011;entryY=0.677;entryDx=0;entryDy=0;entryPerimeter=0;strokeWidth=3;" edge="1" parent="1" source="r-5Lw3RcsIutJ1iu17y8-11" target="r-5Lw3RcsIutJ1iu17y8-26">
          <mxGeometry relative="1" as="geometry" />
        </mxCell>
        <mxCell id="r-5Lw3RcsIutJ1iu17y8-28" style="edgeStyle=orthogonalEdgeStyle;rounded=0;orthogonalLoop=1;jettySize=auto;html=1;exitX=1;exitY=0.25;exitDx=0;exitDy=0;entryX=0.003;entryY=0.37;entryDx=0;entryDy=0;entryPerimeter=0;strokeColor=light-dark(#ff0000, #ededed);strokeWidth=3;" edge="1" parent="1" source="r-5Lw3RcsIutJ1iu17y8-11" target="r-5Lw3RcsIutJ1iu17y8-26">
          <mxGeometry relative="1" as="geometry">
            <Array as="points">
              <mxPoint x="680" y="297" />
              <mxPoint x="680" y="241" />
            </Array>
          </mxGeometry>
        </mxCell>
        <mxCell id="r-5Lw3RcsIutJ1iu17y8-29" value="3 sensores de distância infravermelho" style="rounded=0;whiteSpace=wrap;html=1;" vertex="1" parent="1">
          <mxGeometry x="750" y="320" width="220" height="40" as="geometry" />
        </mxCell>
        <mxCell id="r-5Lw3RcsIutJ1iu17y8-33" value="2 servo motores MG996 360&lt;div&gt;Cada um com um capacitor eletrolítico de 470uF + cerâmico de 100nF&lt;/div&gt;" style="rounded=0;whiteSpace=wrap;html=1;" vertex="1" parent="1">
          <mxGeometry x="710" y="440" width="160" height="60" as="geometry" />
        </mxCell>
        <mxCell id="r-5Lw3RcsIutJ1iu17y8-34" style="edgeStyle=orthogonalEdgeStyle;rounded=0;orthogonalLoop=1;jettySize=auto;html=1;exitX=1;exitY=0.25;exitDx=0;exitDy=0;entryX=-0.017;entryY=0.136;entryDx=0;entryDy=0;entryPerimeter=0;strokeWidth=3;strokeColor=light-dark(#ff0000, #ededed);" edge="1" parent="1" source="r-5Lw3RcsIutJ1iu17y8-18" target="r-5Lw3RcsIutJ1iu17y8-33">
          <mxGeometry relative="1" as="geometry" />
        </mxCell>
        <mxCell id="r-5Lw3RcsIutJ1iu17y8-35" style="edgeStyle=orthogonalEdgeStyle;rounded=0;orthogonalLoop=1;jettySize=auto;html=1;exitX=1;exitY=1;exitDx=0;exitDy=0;entryX=0.014;entryY=0.676;entryDx=0;entryDy=0;entryPerimeter=0;strokeWidth=3;" edge="1" parent="1" source="r-5Lw3RcsIutJ1iu17y8-18" target="r-5Lw3RcsIutJ1iu17y8-33">
          <mxGeometry relative="1" as="geometry" />
        </mxCell>
        <mxCell id="r-5Lw3RcsIutJ1iu17y8-36" value="1 servo motor MG996 180&lt;br&gt;2 servos MG90S" style="rounded=0;whiteSpace=wrap;html=1;" vertex="1" parent="1">
          <mxGeometry x="710" y="530" width="160" height="60" as="geometry" />
        </mxCell>
        <mxCell id="r-5Lw3RcsIutJ1iu17y8-39" value="Ultrassônico" style="rounded=0;whiteSpace=wrap;html=1;" vertex="1" parent="1">
          <mxGeometry x="750" y="370" width="100" height="40" as="geometry" />
        </mxCell>
      </root>
    </mxGraphModel>
  </diagram>
</mxfile>
